<svg width="78" height="79" viewBox="0 0 78 79" fill="none" xmlns="http://www.w3.org/2000/svg">
<path d="M68.2351 51.8404C64.5881 57.6653 59.1878 62.0265 53.7396 64.7176C47.2249 67.9375 40.6961 68.9481 34.9251 68.6168C28.0663 68.1945 22.04 65.9659 17.2539 62.0816C13.0587 58.67 9.74729 53.9198 8.56758 47.758C7.61095 42.7305 8.1372 36.6003 11.3516 30.5023C14.4597 24.581 19.5283 19.7961 24.8885 16.7179C31.2201 13.0836 37.7304 11.6625 43.5072 11.621C50.4598 11.6245 56.663 13.416 61.7004 16.8752C66.2985 19.9881 70.012 24.5182 71.717 30.5158C73.0836 35.3477 73.1218 41.3815 70.4327 47.6564C69.8229 49.0724 69.0878 50.4732 68.241 51.833C67.9577 52.2943 68.861 52.5786 69.1621 52.0951C72.9268 46.0354 74.0798 39.6579 73.4773 34.3049C72.7491 27.8225 69.7098 22.7177 65.7444 18.9846C61.1082 14.6578 55.1636 11.9765 48.304 11.1181C42.3506 10.4155 35.5685 11.0651 28.6717 13.9732C23.0434 16.3436 17.242 20.3533 13.0037 26.1375C8.76539 31.9216 6.99554 38.3049 7.13882 43.8323C7.30968 50.4411 9.91824 55.7431 13.4713 59.7186C17.752 64.419 23.4055 67.5058 30.0491 68.7702C35.9682 69.9202 42.7225 69.6806 49.7649 67.224C55.4587 65.2347 61.5633 61.6258 66.2598 56.0683C67.3164 54.8159 68.2847 53.4897 69.1473 52.1136C69.4472 51.6413 68.5416 51.355 68.2351 51.8404Z" fill="#4A3AFF"/>
<path d="M65.9162 60.8834C60.8195 67.2531 54.1475 71.3518 47.8019 73.2883C40.1016 75.6508 32.939 75.1923 26.8409 73.2232C19.7355 70.8919 13.8836 66.5519 9.67214 60.4901C5.96014 55.1636 3.49979 48.385 3.5354 40.4071C3.58739 33.9096 5.47167 26.4184 10.1227 19.6312C14.6484 13.0298 21.0641 8.35467 27.3716 5.90054C34.9083 2.9627 42.1427 2.91242 48.3013 4.382C55.6874 6.21165 61.8827 10.1016 66.4686 15.7892C70.5995 20.8602 73.5149 27.4063 74.0503 35.2505C74.4689 41.6375 73.2252 49.1419 69.0531 56.3003C68.1298 57.8873 67.0775 59.4247 65.9162 60.8834C65.4499 61.4662 66.2611 61.89 66.6739 61.374C71.9311 54.7795 74.5201 47.1825 75.0569 40.3423C75.6985 32.143 73.6273 25.073 70.3258 19.4235C66.4054 12.8091 60.7417 7.91188 53.7134 5.05942C47.5332 2.54967 40.1708 1.6147 32.1763 3.49216C25.691 5.01853 18.616 8.58772 12.8858 14.755C7.27497 20.7925 3.97591 28.3267 2.93585 35.1965C1.68932 43.4354 3.23294 50.7165 6.09001 56.5948C9.56585 63.5491 14.8269 68.857 21.5184 72.1608C27.549 75.1597 34.7641 76.6101 42.7749 75.3605C49.2781 74.3478 56.5332 71.3672 62.7674 65.5788C64.1526 64.2911 65.4582 62.8849 66.6597 61.387C67.1409 60.7856 66.3291 60.3675 65.9162 60.8834Z" fill="#4A3AFF"/>
<path d="M65.9162 60.8834C60.8195 67.2531 54.1475 71.3518 47.8019 73.2883C40.1016 75.6508 32.939 75.1923 26.8409 73.2232C19.7355 70.8919 13.8836 66.5519 9.67214 60.4901C5.96014 55.1636 3.49979 48.385 3.5354 40.4071C3.58739 33.9096 5.47167 26.4184 10.1227 19.6311C14.6484 13.0298 21.0641 8.35467 27.3716 5.90054C34.9083 2.9627 42.1427 2.91242 48.3013 4.382C55.6874 6.21165 61.8827 10.1016 66.4686 15.7892C70.5995 20.8602 73.5149 27.4063 74.0503 35.2505C74.4689 41.6375 73.2252 49.1419 69.0531 56.3003C68.1298 57.8873 67.0775 59.4247 65.9162 60.8834ZM65.9162 60.8834C65.4499 61.4662 66.2611 61.89 66.6739 61.374C71.9311 54.7795 74.5201 47.1825 75.0569 40.3423C75.6985 32.143 73.6273 25.073 70.3258 19.4235C66.4054 12.8091 60.7417 7.91188 53.7134 5.05942C47.5332 2.54967 40.1708 1.6147 32.1763 3.49216C25.691 5.01853 18.616 8.58772 12.8858 14.755C7.27497 20.7925 3.97591 28.3267 2.93585 35.1965C1.68932 43.4354 3.23293 50.7165 6.09 56.5949C9.56586 63.5491 14.8269 68.857 21.5184 72.1608C27.549 75.1597 34.7641 76.6101 42.7749 75.3605C49.2781 74.3478 56.5332 71.3672 62.7674 65.5788C64.1526 64.2911 65.4582 62.8849 66.6597 61.387C67.1409 60.7856 66.3291 60.3675 65.9162 60.8834ZM68.2351 51.8404C64.5881 57.6653 59.1878 62.0265 53.7396 64.7176C47.2249 67.9375 40.6961 68.9481 34.9251 68.6168C28.0663 68.1945 22.04 65.9659 17.2539 62.0816C13.0587 58.67 9.74728 53.9198 8.56758 47.758C7.61095 42.7305 8.1372 36.6003 11.3516 30.5023C14.4597 24.581 19.5283 19.7961 24.8885 16.7179C31.2201 13.0836 37.7304 11.6625 43.5072 11.621C50.4598 11.6245 56.663 13.416 61.7004 16.8752C66.2985 19.9881 70.012 24.5182 71.717 30.5158C73.0836 35.3476 73.1218 41.3815 70.4327 47.6564C69.8229 49.0724 69.0878 50.4732 68.241 51.833C67.9577 52.2943 68.861 52.5786 69.1621 52.0951C72.9268 46.0354 74.0798 39.6579 73.4773 34.3049C72.7491 27.8225 69.7098 22.7177 65.7444 18.9846C61.1082 14.6578 55.1636 11.9765 48.304 11.1181C42.3506 10.4155 35.5685 11.0651 28.6717 13.9732C23.0434 16.3436 17.242 20.3533 13.0037 26.1375C8.76539 31.9216 6.99554 38.3049 7.13882 43.8323C7.30968 50.4411 9.91824 55.7431 13.4713 59.7186C17.752 64.419 23.4055 67.5058 30.0492 68.7702C35.9682 69.9202 42.7225 69.6806 49.7649 67.224C55.4587 65.2347 61.5633 61.6258 66.2598 56.0683C67.3164 54.8159 68.2847 53.4897 69.1473 52.1136C69.4472 51.6413 68.5416 51.355 68.2351 51.8404Z" stroke="#A9A9A9" stroke-width="5"/>
</svg>
