<svg width="94" height="75" viewBox="0 0 94 75" fill="none" xmlns="http://www.w3.org/2000/svg">
<path d="M5.00034 69.6798C5.00034 69.6798 5.3144 57.0634 14.1507 49.1456C23.1322 41.0977 40.6266 37.7279 45.7836 48.39C48.5577 54.1254 47.9163 59.5696 42.4139 63.0125C36.93 66.4438 31.1045 65.0322 26.6941 60.4595C17.2514 50.6695 26.4815 32.7134 38.1743 25.2907C49.8907 17.8531 70.4295 17.0248 75.1961 29.7936C77.4256 35.7656 76.4264 41.7274 70.8434 45.0377C65.3708 48.2824 59.3855 47.0528 55.1235 42.4847C46.0305 32.7385 53.6986 14.0085 65.7845 7.83391C73.6759 3.80225 80.9049 4.06778 88.3267 8.66192" stroke="#FF7022" stroke-opacity="0.5" stroke-width="10" stroke-linecap="round"/>
</svg>
