<svg width="82" height="84" viewBox="0 0 82 84" fill="none" xmlns="http://www.w3.org/2000/svg">
<path d="M56.233 37.7779C53.1974 34.3113 54.1263 2.48109 50.2757 4.05725C46.4252 5.63341 28.8582 23.6954 26.3956 22.6025C23.933 21.5096 4.39219 12.0152 4.64441 14.8823C4.89663 17.7495 16.8304 40.1693 15.2131 43.5844C13.5958 46.9995 1.87621 62.0108 4.33889 63.1038C6.80157 64.1968 27.9197 54.6983 31.153 56.3452C34.3863 57.9921 39.1973 81.0116 41.7145 79.6914C44.2317 78.3713 45.9219 60.1804 48.0411 58.1538C50.1603 56.1271 79.9493 49.9242 76.8073 48.5298C73.6653 47.1353 59.2686 41.2444 56.233 37.7779Z" stroke="#3F3932" stroke-width="8" stroke-linecap="round"/>
</svg>
