<svg width="16" height="16" viewBox="0 0 16 16" fill="none" xmlns="http://www.w3.org/2000/svg">
<path fill-rule="evenodd" clip-rule="evenodd" d="M7.66634 1.83337C6.9003 1.83337 6.14175 1.98426 5.43402 2.27741C4.72629 2.57056 4.08323 3.00024 3.54155 3.54192C2.99988 4.08359 2.5702 4.72665 2.27704 5.43439C1.98389 6.14212 1.83301 6.90066 1.83301 7.66671C1.83301 8.43275 1.98389 9.1913 2.27704 9.89903C2.5702 10.6068 2.99988 11.2498 3.54155 11.7915C4.08323 12.3332 4.72629 12.7629 5.43402 13.056C6.14175 13.3492 6.9003 13.5 7.66634 13.5C9.21344 13.5 10.6972 12.8855 11.7911 11.7915C12.8851 10.6975 13.4997 9.2138 13.4997 7.66671C13.4997 6.11961 12.8851 4.63588 11.7911 3.54192C10.6972 2.44796 9.21344 1.83337 7.66634 1.83337ZM0.833008 7.66671C0.833008 3.89337 3.89301 0.833374 7.66634 0.833374C11.4397 0.833374 14.4997 3.89337 14.4997 7.66671C14.4997 9.37337 13.8737 10.9347 12.839 12.132L15.0197 14.3134C15.0688 14.3591 15.1082 14.4143 15.1355 14.4757C15.1629 14.537 15.1776 14.6032 15.1787 14.6704C15.1799 14.7375 15.1676 14.8042 15.1424 14.8664C15.1173 14.9287 15.0798 14.9853 15.0324 15.0327C14.9849 15.0802 14.9283 15.1176 14.8661 15.1428C14.8038 15.1679 14.7371 15.1803 14.67 15.1791C14.6029 15.1779 14.5366 15.1632 14.4753 15.1359C14.414 15.1086 14.3588 15.0692 14.313 15.02L12.1317 12.8394C10.8922 13.9133 9.30634 14.5031 7.66634 14.5C3.89301 14.5 0.833008 11.44 0.833008 7.66671Z" fill="#686A7C"/>
</svg>
