<svg width="16" height="16" viewBox="0 0 16 16" fill="none" xmlns="http://www.w3.org/2000/svg">
<path fill-rule="evenodd" clip-rule="evenodd" d="M11.3337 2.16669C11.4663 2.16669 11.5934 2.21937 11.6872 2.31313C11.781 2.4069 11.8337 2.53408 11.8337 2.66669V11.8334L12.9337 10.3667C12.9731 10.3142 13.0224 10.2699 13.0789 10.2365C13.1354 10.203 13.1979 10.181 13.2629 10.1717C13.3279 10.1624 13.3941 10.166 13.4578 10.1823C13.5214 10.1986 13.5811 10.2273 13.6337 10.2667C13.6862 10.3061 13.7304 10.3554 13.7639 10.4119C13.7973 10.4684 13.8193 10.531 13.8286 10.596C13.8379 10.661 13.8343 10.7272 13.818 10.7908C13.8017 10.8544 13.7731 10.9142 13.7337 10.9667L11.7337 13.6334C11.6707 13.7173 11.5829 13.7793 11.4827 13.8106C11.3826 13.8419 11.2751 13.8409 11.1755 13.8077C11.076 13.7745 10.9894 13.7108 10.928 13.6257C10.8667 13.5406 10.8337 13.4383 10.8337 13.3334V2.66669C10.8337 2.53408 10.8863 2.4069 10.9801 2.31313C11.0739 2.21937 11.2011 2.16669 11.3337 2.16669ZM4.83366 4.00002C4.83366 3.86741 4.88634 3.74024 4.98011 3.64647C5.07387 3.5527 5.20105 3.50002 5.33366 3.50002H8.66699C8.7996 3.50002 8.92678 3.5527 9.02055 3.64647C9.11431 3.74024 9.16699 3.86741 9.16699 4.00002C9.16699 4.13263 9.11431 4.25981 9.02055 4.35357C8.92678 4.44734 8.7996 4.50002 8.66699 4.50002H5.33366C5.20105 4.50002 5.07387 4.44734 4.98011 4.35357C4.88634 4.25981 4.83366 4.13263 4.83366 4.00002ZM3.50033 7.33335C3.50033 7.20075 3.553 7.07357 3.64677 6.9798C3.74054 6.88603 3.86772 6.83335 4.00033 6.83335H8.66699C8.7996 6.83335 8.92678 6.88603 9.02055 6.9798C9.11431 7.07357 9.16699 7.20075 9.16699 7.33335C9.16699 7.46596 9.11431 7.59314 9.02055 7.68691C8.92678 7.78067 8.7996 7.83335 8.66699 7.83335H4.00033C3.86772 7.83335 3.74054 7.78067 3.64677 7.68691C3.553 7.59314 3.50033 7.46596 3.50033 7.33335ZM2.16699 10.6667C2.16699 10.5341 2.21967 10.4069 2.31344 10.3131C2.40721 10.2194 2.53438 10.1667 2.66699 10.1667H8.66699C8.7996 10.1667 8.92678 10.2194 9.02055 10.3131C9.11431 10.4069 9.16699 10.5341 9.16699 10.6667C9.16699 10.7993 9.11431 10.9265 9.02055 11.0202C8.92678 11.114 8.7996 11.1667 8.66699 11.1667H2.66699C2.53438 11.1667 2.40721 11.114 2.31344 11.0202C2.21967 10.9265 2.16699 10.7993 2.16699 10.6667Z" fill="#E0E0E0"/>
</svg>
