<svg width="16" height="16" viewBox="0 0 16 16" fill="none" xmlns="http://www.w3.org/2000/svg">
<path fill-rule="evenodd" clip-rule="evenodd" d="M9.13249 2.20935C9.22129 2.17019 9.31957 2.15773 9.41534 2.17347C9.51111 2.18921 9.60023 2.23249 9.67182 2.29802L13.6718 5.96469C13.7202 6.00907 13.7594 6.06256 13.7872 6.1221C13.8149 6.18163 13.8307 6.24605 13.8335 6.31167C13.8364 6.37729 13.8262 6.44283 13.8038 6.50454C13.7813 6.56626 13.7469 6.62294 13.7025 6.67135C13.6581 6.71977 13.6046 6.75896 13.5451 6.78671C13.4855 6.81445 13.4211 6.83019 13.3555 6.83304C13.2899 6.83589 13.2243 6.82578 13.1626 6.8033C13.1009 6.78082 13.0442 6.74641 12.9958 6.70202L9.83382 3.80335V13.3334C9.83382 13.466 9.78114 13.5931 9.68737 13.6869C9.5936 13.7807 9.46643 13.8334 9.33382 13.8334C9.20121 13.8334 9.07403 13.7807 8.98027 13.6869C8.8865 13.5931 8.83382 13.466 8.83382 13.3334V2.66669C8.83376 2.56959 8.86196 2.47458 8.915 2.39325C8.96804 2.31191 9.04361 2.24845 9.13249 2.20935ZM6.66715 2.16669C6.79976 2.16669 6.92694 2.21937 7.02071 2.31313C7.11447 2.4069 7.16715 2.53408 7.16715 2.66669V13.3334C7.16719 13.4304 7.13898 13.5254 7.08594 13.6067C7.03291 13.688 6.95735 13.7521 6.8685 13.7912C6.77964 13.8303 6.68133 13.8427 6.58555 13.8269C6.48978 13.811 6.40069 13.7676 6.32915 13.702L2.32915 10.0354C2.23138 9.94571 2.17321 9.8209 2.16746 9.68837C2.16171 9.55585 2.20884 9.42646 2.29849 9.32869C2.38813 9.23091 2.51294 9.17275 2.64547 9.167C2.77799 9.16125 2.90738 9.20838 3.00515 9.29802L6.16715 12.1967V2.66669C6.16715 2.53408 6.21983 2.4069 6.3136 2.31313C6.40737 2.21937 6.53454 2.16669 6.66715 2.16669Z" fill="#E0E0E0"/>
</svg>
