<svg width="16" height="16" viewBox="0 0 16 16" fill="none" xmlns="http://www.w3.org/2000/svg">
<path fill-rule="evenodd" clip-rule="evenodd" d="M11.1757 2.19269C11.2752 2.15949 11.3826 2.15843 11.4827 2.18966C11.5829 2.22089 11.6707 2.28282 11.7337 2.36669L13.7337 5.03336C13.7731 5.08588 13.8017 5.14566 13.818 5.20926C13.8343 5.27287 13.8379 5.33906 13.8286 5.40407C13.8193 5.46907 13.7973 5.5316 13.7639 5.5881C13.7304 5.6446 13.6862 5.69396 13.6337 5.73336C13.5811 5.77275 13.5214 5.80142 13.4578 5.81771C13.3941 5.83401 13.3279 5.83762 13.2629 5.82833C13.1979 5.81904 13.1354 5.79705 13.0789 5.76359C13.0224 5.73014 12.9731 5.68588 12.9337 5.63336L11.8337 4.16669V13.3334C11.8337 13.466 11.781 13.5931 11.6872 13.6869C11.5934 13.7807 11.4663 13.8334 11.3337 13.8334C11.2011 13.8334 11.0739 13.7807 10.9801 13.6869C10.8863 13.5931 10.8337 13.466 10.8337 13.3334V2.66669C10.8337 2.56179 10.8668 2.45958 10.9282 2.37451C10.9896 2.28944 11.0761 2.22584 11.1757 2.19269ZM2.16699 5.33336C2.16699 5.20075 2.21967 5.07357 2.31344 4.9798C2.40721 4.88603 2.53438 4.83336 2.66699 4.83336H8.66699C8.7996 4.83336 8.92678 4.88603 9.02055 4.9798C9.11431 5.07357 9.16699 5.20075 9.16699 5.33336C9.16699 5.46596 9.11431 5.59314 9.02055 5.68691C8.92678 5.78068 8.7996 5.83336 8.66699 5.83336H2.66699C2.53438 5.83336 2.40721 5.78068 2.31344 5.68691C2.21967 5.59314 2.16699 5.46596 2.16699 5.33336ZM3.50033 8.66669C3.50033 8.53408 3.553 8.4069 3.64677 8.31314C3.74054 8.21937 3.86772 8.16669 4.00033 8.16669H8.66699C8.7996 8.16669 8.92678 8.21937 9.02055 8.31314C9.11431 8.4069 9.16699 8.53408 9.16699 8.66669C9.16699 8.7993 9.11431 8.92647 9.02055 9.02024C8.92678 9.11401 8.7996 9.16669 8.66699 9.16669H4.00033C3.86772 9.16669 3.74054 9.11401 3.64677 9.02024C3.553 8.92647 3.50033 8.7993 3.50033 8.66669ZM4.83366 12C4.83366 11.8674 4.88634 11.7402 4.98011 11.6465C5.07387 11.5527 5.20105 11.5 5.33366 11.5H8.66699C8.7996 11.5 8.92678 11.5527 9.02055 11.6465C9.11431 11.7402 9.16699 11.8674 9.16699 12C9.16699 12.1326 9.11431 12.2598 9.02055 12.3536C8.92678 12.4473 8.7996 12.5 8.66699 12.5H5.33366C5.20105 12.5 5.07387 12.4473 4.98011 12.3536C4.88634 12.2598 4.83366 12.1326 4.83366 12Z" fill="#E0E0E0"/>
</svg>
